PathFileType	4	(X/Y/Z)	C:/Users/beibeiliu/ov580/test_trc/User1\sequence.22_training_dense_right.trc
DataRate	CameraRate	NumFrames	NumMarkers	Units	OrigDataRate	OrigDataStartFrame	OrigNumFrames
120	120	25	19	mm	120	137	273
Frame#	Time	ThumbCMC			ThumbMCP			ThumbIP			ThumbTip			IndexMCP			IndexPIP			IndexTip			MiddleMCP			MiddlePIP			MiddleTip			RingMCP			RingPIP			RingTip			PinkyMCP			PinkyPIP			PinkyTip			BackHand1			BackHand2			BackHand3	
		X0	Y0	Z0	X1	Y1	Z1	X2	Y2	Z2	X3	Y3	Z3	X4	Y4	Z4	X5	Y5	Z5	X6	Y6	Z6	X7	Y7	Z7	X8	Y8	Z8	X9	Y9	Z9	X10	Y10	Z10	X11	Y11	Z11	X12	Y12	Z12	X13	Y13	Z13	X14	Y14	Z14	X15	Y15	Z15	X16	Y16	Z16	X17	Y17	Z17	X18	Y18	Z18	
136	1.13333	119.546	11.9368	62.6298	114.668	2.79375	26.2465	108.778	3.97305	-0.422766	102.738	3.3687	-23.6625	145.926	56.0292	-3.944	139.214	48.0703	-34.6499	134.748	16.8177	-51.7477	166.182	45.1573	-14.9083	151.358	20.8481	-31.6021	144.822	1.24621	2.87398	185.137	29.3878	-11.3846	169.24	2.97186	-21.9516	160.903	-5.847	11.5613	198.378	15.84	0.0596457	179.703	-6.82575	-9.81497	165.947	-9.68994	19.0594	189.213	33.6936	51.0266	188.044	15.3185	85.1988	156.939	39.4765	69.0802	
137	1.14167	118.675	11.7879	61.0585	113.41	3.30028	23.9718	106.546	6.14548	-3.97216	105.146	2.23634	-23.862	144.553	55.9238	-8.81754	139.811	45.1542	-35.6012	133.622	19.6856	-52.8294	165.559	43.6234	-15.0524	147.969	14.6677	-28.8549	141.717	2.22165	5.83508	183.793	27.2565	-14.7168	164.206	-0.940376	-19.4248	158.28	-4.1029	14.5718	195.876	13.5048	-2.91715	178.175	-7.22293	-9.48586	169.349	-13.6561	22.6088	191.992	31.5224	52.3084	184.145	20.1562	84.5807	153.477	39.6977	68.0412	
138	1.15	118.109	13.0323	60.0682	111.126	3.23846	24.932	106.165	5.79594	-3.89232	100.826	3.26287	-26.8615	144.937	55.3396	-9.09066	138.778	44.0509	-37.9636	134.99	18.7858	-52.8006	164.563	43.6837	-16.6726	147.884	13.8052	-26.6667	144.907	0.705585	5.99565	182.452	27.1418	-10.9488	165.869	-3.1906	-18.2764	156.842	-4.33636	14.8677	195.396	12.711	-2.49063	175.992	-7.4752	-8.05426	165.858	-12.4484	23.9966	188.239	34.6039	50.9471	186.891	18.7878	83.4588	154.303	36.9813	70.1598	
139	1.15833	121.453	13.3326	60.8477	115.309	5.76609	23.8029	107.373	6.71582	-4.02971	105.666	4.63015	-24.6215	141.743	57.6238	-8.68328	138.037	44.2208	-37.7275	133.463	21.6598	-52.1185	164.177	44.266	-15.5831	148.322	13.3072	-26.2497	144.763	1.6622	8.30402	179.97	27.346	-10.6448	165.522	-0.769725	-19.4192	158.388	-4.44665	16.6275	196.733	9.19153	-2.33621	175.824	-7.4665	-8.55687	164.211	-11.0233	24.5257	187.458	33.1265	50.8455	185.902	18.3623	84.9036	156.168	38.0796	70.0666	
140	1.16667	121.845	16.5326	58.8643	110.095	5.47702	24.2886	108.207	5.82271	-1.44024	105.296	6.27471	-25.5235	143.834	57.3192	-5.99914	142.464	42.7072	-37.9653	132.808	21.4463	-54.7412	165.775	44.3235	-12.8923	147.923	14.3007	-26.9756	144.897	1.00348	9.51811	184.593	24.1947	-13.0913	162.992	-0.942432	-18.8886	159.746	-5.62142	17.4117	197.658	10.1011	1.57538	176.166	-7.5979	-8.8785	163.514	-8.74227	26.1807	191.505	27.7275	52.646	185.641	16.8619	82.3956	153.801	39.6141	69.7185	
141	1.175	118.21	16.234	60.8266	113.901	7.77465	22.1614	107.143	9.83109	-4.80121	107.14	6.70805	-25.6896	144.598	58.3422	-10.1632	145.998	44.852	-36.3788	138.617	21.5875	-54.2737	169.86	42.2753	-13.2505	149.011	16.514	-27.679	143.175	2.37774	8.05651	180.661	25.4547	-13.6548	164.313	-2.70657	-16.7374	156.331	-5.37445	13.7145	200.327	8.04025	1.05465	175.34	-10.1813	-6.17973	165.53	-12.5753	23.0098	188.942	32.2435	51.2726	188.183	15.8566	85.4988	159.261	38.6214	69.0167	
142	1.18333	119.682	20.1244	56.6275	110.096	8.68263	23.5659	107.64	11.2977	-5.07778	105.802	7.30172	-24.7219	149.364	57.9834	-9.00561	145.441	47.6991	-36.165	139.272	26.5876	-56.2887	169.567	42.5621	-16.0944	154.097	15.6549	-28.0967	143.748	5.38015	12.0411	183.102	23.6792	-15.4107	164.106	1.01976	-20.0029	158.068	-3.47383	17.8246	198.733	8.56674	-0.916575	175.963	-7.34052	-8.61366	163.986	-14.0454	23.9222	189.124	29.4148	53.8024	190.229	18.025	82.1898	157.028	42.4463	69.2183	
143	1.19167	122.956	21.1242	56.9058	111.325	8.95673	25.2326	106.226	11.2331	-5.3193	102.845	10.1804	-27.7586	149.435	59.7247	-6.4944	146.305	49.393	-39.2536	143.545	27.5544	-58.4059	170.669	43.67	-14.3875	153.741	15.8526	-28.6562	142.022	6.46469	10.5629	184.984	26.0436	-10.9683	164.231	-3.64415	-16.1769	157.299	-3.93612	15.0654	200.437	8.99729	0.9683	178.134	-9.0922	-9.50041	161.54	-8.2172	21.4157	190.705	34.0838	50.2365	185.664	15.4947	85.7418	158.238	40.113	67.1467	
144	1.2	122.006	19.8645	61.3198	110.476	9.40961	24.5835	107.663	10.9454	-2.70753	99.189	8.04205	-23.8903	152.348	61.5376	-9.73341	152.819	51.0067	-39.6666	143.982	35.8901	-59.3836	169.365	44.8309	-13.4553	152.194	16.5164	-27.8324	141.482	6.57006	7.52259	184.889	23.8545	-14.3975	166.838	-0.733152	-19.6544	158.388	-3.95467	16.5051	201.328	6.6632	-1.41756	174.044	-9.18098	-8.40825	161.493	-8.85381	17.5641	191.66	30.747	48.381	186.304	16.0254	86.1857	160.914	43.1649	67.4822	
145	1.20833	123.317	21.9645	59.2316	113.525	11.6239	22.7728	105.032	10.6891	-2.45518	97.4016	9.23235	-23.4448	157.647	61.2221	-9.19678	156.443	56.7428	-36.9929	148.341	40.2236	-61.4087	173.514	44.1264	-14.4785	153.279	17.6931	-30.24	143.11	6.50817	7.20864	185.866	24.2174	-14.2172	163.414	-1.41844	-19.335	158.658	-3.84937	14.9184	200.085	7.2128	-0.716444	176.337	-8.3574	-10.7814	161.998	-13.0839	19.311	195.71	26.7894	51.3938	188.317	15.422	83.8569	164.397	41.1106	68.0092	
146	1.21667	124.896	24.9814	55.6417	115.581	11.2269	25.3282	106.701	12.9848	-3.54337	97.8648	8.62407	-21.4083	157.781	66.0116	-10.0238	157.776	61.7286	-35.2244	154.207	41.8034	-63.5165	173.958	42.9274	-15.4368	153.758	16.5035	-29.1791	144.014	9.03163	10.6953	187.678	22.5589	-12.6409	164.253	-1.30188	-18.5715	157.559	-3.54919	13.3801	200.147	4.56049	-4.86363	174.261	-9.22437	-9.35187	162.374	-6.27943	20.5445	194.715	31.7159	48.9543	189.807	14.6931	80.9259	163.333	39.9319	68.1873	
147	1.225	123.613	24.9797	55.8857	115.336	10.9519	24.7032	107.677	12.2718	-1.82617	98.9226	10.247	-22.2119	161.807	63.5246	-6.59359	163.126	61.3923	-36.9827	157.442	45.6846	-64.1204	176.565	40.4998	-18.5389	151.841	15.1583	-28.3589	141.546	11.127	9.93039	186.596	22.8217	-13.7102	165.775	-1.36653	-19.7554	157.684	-3.28481	14.058	199.45	7.09033	-0.954069	176.932	-10.3004	-9.58154	161.656	-10.6284	19.9708	194.988	29.7735	50.5543	188.933	16.9573	79.5723	164.874	39.3487	67.971	
148	1.23333	125.84	24.5418	56.4066	114.388	12.0561	22.2683	105.928	14.1819	-4.64695	96.486	10.4257	-22.2401	161.967	66.5834	-8.59355	164.749	61.5141	-39.5374	158.903	49.9727	-65.4968	175.063	42.0765	-18.516	156.66	16.6338	-30.901	145.101	9.1946	9.23728	186.048	23.0055	-15.8006	166.492	-2.17021	-20.0307	157.058	-1.09321	13.3954	199.933	4.59428	-5.09991	175.269	-13.4271	-7.39536	164.633	-6.92505	24.0775	196.696	28.9693	47.7875	189.451	16.8214	81.8188	166.7	41.2594	68.3602	
149	1.24167	123.39	24.4821	56.4595	116.886	10.7388	25.7991	105.696	12.6617	-4.43475	101.652	9.27965	-25.0639	165.03	64.4284	-6.59977	167.372	61.634	-35.0571	165.518	49.552	-61.3158	176.344	43.2361	-16.0642	156.156	17.8362	-30.1982	145.307	8.12911	8.57278	186.911	23.6129	-14.3531	167.234	0.204725	-20.0024	159.083	-1.11786	16.7968	199.038	4.01727	-4.61733	174.784	-11.6773	-6.61907	164.821	-5.83939	24.9624	196.337	30.5041	49.9525	192.057	16.6838	81.9502	163.336	43.8352	66.2477	
150	1.25	125.537	25.3754	57.1151	117.616	13.0632	21.5718	109.931	12.2487	-3.21155	100.287	10.4926	-25.9786	163.488	66.0197	-6.98704	166.061	64.7317	-35.8111	162.311	49.395	-66.3357	178.395	40.6848	-18.3687	156.766	14.6108	-28.3848	146.073	8.58882	9.57459	190.202	22.3026	-13.0659	165.295	-2.28784	-17.77	157.823	-1.42652	13.0121	200.02	5.44915	-1.95804	177.323	-11.0135	-8.05119	164.934	-7.53899	25.119	197.475	32.313	48.3189	191.253	19.0745	80.5283	166.02	43.8173	65.2124	
151	1.25833	126.5	27.4994	53.7557	116.766	12.3291	21.9918	114.217	14.0441	-6.39337	104.991	9.83574	-27.1846	163.871	65.2963	-8.02078	169.567	59.4791	-36.4761	165.569	44.4244	-66.5388	180.829	40.3454	-16.2017	158.637	15.61	-30.1954	144.124	8.61996	5.59665	192.328	17.8797	-17.4005	167.51	-4.25835	-17.66	161.297	-3.29104	12.6372	204.788	1.24298	-2.40526	176.512	-12.4655	-6.08112	168.114	-7.36275	26.0645	197.81	31.1443	48.7028	194.234	14.8563	83.5983	166.494	43.3964	65.0819	
152	1.26667	130.282	25.2151	54.3949	119.024	11.4698	22.4591	110.673	12.9924	-9.16036	103.959	9.84157	-27.5087	167.485	61.181	-9.4912	168.889	56.7215	-39.7203	165.208	40.3616	-64.8485	180.717	37.4232	-21.6809	157.012	14.9331	-29.0049	148.468	6.50617	8.45921	193.331	18.7498	-13.9549	168.93	-0.951144	-20.2794	159.593	-1.55561	12.4593	202.956	2.74903	-1.68181	177.119	-15.1631	-4.4945	167.15	-7.50435	22.6162	203.093	28.5692	49.2268	189.593	16.1755	82.6543	165.33	42.4897	65.9221	
153	1.275	128.127	25.0185	56.351	118.662	12.6703	20.9791	112.647	13.7175	-9.56997	104.559	7.86431	-28.2602	163.633	63.1016	-13.4468	166.939	55.1472	-41.2736	164.225	37.4412	-64.3652	179.517	41.1288	-17.2626	157.463	11.9841	-27.5199	145.033	10.0292	9.68896	190.775	19.5159	-17.3861	167.764	-3.18951	-17.3565	161.752	-2.79357	15.2564	203.421	2.89457	-3.41986	177.854	-12.7381	-5.25648	167.912	-3.29918	23.9973	201.498	29.9703	47.3305	194.042	19.5507	79.643	166.894	41.8597	65.7129	
154	1.28333	129.035	23.6336	55.3699	118.963	12.4765	19.8565	114.865	11.2785	-8.56543	107.219	7.92424	-30.503	164.121	60.1199	-15.75	163.191	53.6171	-43.748	160.834	34.2522	-65.1488	179.238	39.1854	-19.4145	159.183	13.4411	-29.669	145.304	9.17108	9.51714	192.73	20.1899	-14.5196	171.423	-4.98468	-18.5292	159.289	-2.18068	13.8222	204.682	2.72562	-2.1393	180.322	-12.2266	-7.87782	165.808	-8.28406	21.8124	197.205	29.6039	48.2326	194.082	16.3867	80.5023	164.921	44.7402	64.7802	
155	1.29167	128.958	22.8331	55.9275	118.186	12.2241	19.5619	113.61	11.9752	-9.9092	111.637	7.80471	-30.5261	163.585	59.9413	-14.4375	163.069	49.794	-43.4252	158.283	36.4797	-62.7474	176.165	40.6602	-21.5179	157.62	10.4808	-28.286	145.602	8.29615	9.9895	193.604	18.7828	-13.3802	169.063	-5.40102	-18.1843	160.283	-1.97691	15.7749	204.933	3.93525	-1.84504	178.086	-13.3821	-6.09683	165.808	-5.96002	24.0784	200.982	30.7252	45.5928	192.951	16.0354	79.5902	165.306	41.6426	64.7161	
156	1.3	125.793	24.0709	53.7634	118.346	10.0101	21.613	114.942	9.61505	-7.48606	108.806	6.52996	-28.7969	159.912	60.793	-14.3779	160.148	50.7409	-44.2617	155.264	34.0742	-62.8089	177.141	38.7643	-20.3832	155.872	16.0304	-31.5679	146.991	6.95644	10.1481	188.113	20.9414	-18.149	164.268	-2.98887	-17.6395	157.955	-0.965188	14.7878	202.504	2.87662	-2.44053	176.628	-9.76553	-7.10161	164.425	-6.44566	25.6373	197.657	31.098	44.9207	189.208	17.0887	79.676	165.827	43.911	64.6984	
157	1.30833	122.867	22.208	55.7728	117.08	12.7762	16.5828	113.699	12.0549	-11.2859	111.442	7.91283	-32.6737	159.414	58.8743	-10.4184	155.959	52.1918	-41.3657	150.75	32.1189	-64.5048	173.641	39.5375	-21.7228	154.467	11.6659	-27.5691	145.682	6.18089	10.5234	190.321	18.1309	-14.8757	165.461	-2.71899	-20.3154	158.591	-5.46669	14.2721	201.357	1.75451	-2.80356	174.788	-10.7679	-7.01663	162.886	-8.41271	22.5939	196.166	28.5687	50.522	188.286	17.8151	82.4532	161.14	43.3281	64.7402	
158	1.31667	124.327	24.4532	51.6202	113.664	11.3042	20.1665	113.595	10.7412	-9.87271	107.896	7.23615	-34.2221	159.674	58.3687	-13.1116	154.655	51.7754	-38.7899	151.057	30.5048	-62.7117	175.816	38.2968	-18.1468	154.12	12.1783	-28.9294	144.863	4.46021	9.83594	187.867	18.9689	-14.704	164.02	-2.24579	-19.4099	154.161	-1.35078	16.6407	200.178	-0.0436065	-2.70336	171.277	-11.7707	-4.60153	162.833	-11.2854	25.2111	196.744	28.9221	46.3506	186.298	15.9731	79.1416	160.552	42.978	64.1355	
159	1.325	120.756	23.0358	55.4606	116.969	11.0054	19.2637	112.891	9.23263	-6.45592	108.556	6.20727	-34.2902	156.307	57.8244	-13.3406	154.756	48.7387	-37.5024	145.713	29.7226	-62.0259	174.056	38.6837	-16.1107	150.983	8.68349	-25.4131	142.341	3.93298	8.3836	184.712	19.5096	-12.6639	160.535	-4.56555	-17.3564	154.623	-5.38898	15.3274	196.782	2.13823	-0.122532	170.389	-15.4539	-4.37466	161.442	-6.53304	25.225	195.433	24.3535	50.3887	188.914	12.1486	79.3749	165.002	40.9709	64.0867	
160	1.33333	124.448	22.742	52.7725	110.208	9.7632	19.668	106.813	8.95926	-8.062	104.683	5.22458	-33.0811	154.5	57.3363	-12.3833	153.115	46.4008	-38.2322	144.568	24.9942	-63.0981	169.668	36.8062	-19.5839	146.844	10.9606	-25.9315	140.166	3.96029	8.7722	182.116	16.583	-16.1216	157.807	-4.2941	-16.5658	153.259	-3.59489	18.3511	195.069	-1.99003	-2.02018	169.997	-13.3709	-5.1886	159.936	-10.5898	24.7003	192.341	25.0922	51.5826	188.014	12.6506	79.4828	158.975	40.6153	66.0329	
